<?xml version="1.0" standalone="no"?>
<!DOCTYPE svg PUBLIC "-//W3C//DTD SVG 20010904//EN"
 "http://www.w3.org/TR/2001/REC-SVG-20010904/DTD/svg10.dtd">
<svg version="1.0" xmlns="http://www.w3.org/2000/svg"
 width="511.000000pt" height="511.000000pt" viewBox="0 0 511.000000 511.000000"
 preserveAspectRatio="xMidYMid meet">

<g transform="translate(0.000000,511.000000) scale(0.100000,-0.100000)"
fill="#000000" stroke="none">
<path d="M3440 5033 c-160 -27 -293 -72 -512 -175 -166 -77 -204 -102 -299
-200 -64 -65 -81 -78 -108 -78 -43 0 -76 -20 -134 -78 -27 -28 -59 -55 -70
-60 -28 -14 -174 -62 -189 -62 -17 0 -148 -89 -205 -139 -28 -25 -81 -71 -118
-101 -68 -56 -116 -116 -130 -160 -4 -14 -25 -45 -46 -69 -44 -49 -79 -134
-79 -189 0 -24 -9 -51 -26 -75 -35 -52 -55 -115 -53 -162 1 -22 -3 -58 -11
-79 -17 -52 -7 -165 19 -214 14 -26 21 -65 25 -132 3 -53 15 -139 26 -193 22
-96 22 -97 2 -124 -30 -44 -44 -100 -44 -172 1 -69 5 -85 45 -192 33 -90 76
-149 147 -204 76 -58 143 -88 197 -87 30 0 48 -6 65 -22 30 -29 235 -85 258
-71 6 4 17 1 25 -5 11 -9 23 -9 45 -2 24 9 39 7 75 -9 l45 -20 -30 -26 c-55
-46 -63 -74 -80 -278 -5 -60 -14 -145 -20 -188 -9 -56 -9 -90 -2 -120 8 -31 8
-47 -3 -66 -14 -26 -35 -108 -35 -135 0 -8 7 -21 15 -29 16 -16 37 -165 29
-207 -3 -14 -1 -45 5 -69 5 -25 8 -48 5 -52 -2 -4 -23 0 -46 8 -27 9 -58 12
-85 8 -24 -3 -43 -5 -43 -3 -10 89 -36 177 -75 255 -48 96 -139 206 -191 233
-16 8 -47 26 -69 41 -69 45 -198 106 -240 112 -22 3 -71 13 -110 21 -107 24
-243 20 -392 -10 -70 -15 -135 -27 -143 -27 -28 1 -138 -57 -215 -112 -42 -30
-80 -55 -84 -55 -4 0 -31 -26 -58 -58 -121 -139 -173 -240 -173 -337 0 -29 -4
-65 -9 -78 -13 -34 6 -299 26 -367 30 -101 80 -183 154 -254 84 -79 139 -109
267 -142 l97 -25 735 6 c785 6 831 9 925 58 45 24 130 38 222 37 76 -1 88 14
80 102 -3 32 -1 60 3 63 5 3 11 31 15 63 13 126 12 122 55 122 48 0 84 38 75
80 -5 24 -3 28 26 34 75 15 76 14 76 -66 -1 -90 17 -216 32 -231 6 -6 11 -41
11 -78 0 -41 5 -71 13 -77 7 -6 87 -11 203 -11 216 -1 221 0 231 77 5 36 2 43
-36 81 -41 41 -41 42 -51 143 -5 57 -12 123 -16 148 -5 42 -4 46 26 65 17 11
47 44 66 73 34 52 34 52 19 96 -18 53 -36 136 -40 191 -2 22 -7 59 -11 82 -5
34 -2 49 15 79 26 43 22 72 -16 122 -29 38 -24 62 11 62 29 0 50 31 41 61 -4
12 3 37 19 65 30 54 31 68 10 120 -59 146 -88 189 -134 199 -28 6 -40 27 -40
72 0 12 -14 37 -32 55 l-32 33 39 7 c22 4 47 5 57 2 9 -3 45 5 81 16 35 12 68
20 73 18 5 -2 33 8 63 20 35 16 79 49 131 100 91 91 121 153 128 271 5 88 -9
157 -50 255 -17 39 -37 94 -44 121 -15 54 -18 195 -8 318 l7 76 48 16 c114 38
159 102 159 224 0 77 -35 212 -75 291 l-25 50 42 39 c57 52 102 141 102 202 0
54 -26 102 -108 202 -49 60 -65 87 -53 87 2 0 79 -36 171 -80 l167 -80 -35
-49 c-37 -50 -66 -139 -66 -202 0 -57 35 -156 76 -216 60 -87 182 -163 261
-163 41 0 138 43 169 75 11 12 27 26 35 31 32 20 80 97 99 156 44 142 35 229
-35 314 -47 58 -164 121 -237 130 l-56 7 -11 62 c-33 185 -139 371 -320 558
-113 116 -206 181 -306 213 -106 34 -330 53 -425 37z m-910 -498 c0 -4 -7 -19
-15 -36 -70 -134 -16 -312 140 -465 117 -115 318 -263 438 -323 150 -74 368
-131 506 -131 83 0 200 28 273 65 l69 34 18 -30 c31 -51 70 -182 77 -258 8
-83 -11 -148 -53 -181 -61 -48 -332 -102 -508 -102 -126 1 -283 30 -464 87
-266 85 -376 149 -547 321 -244 245 -349 468 -300 636 31 106 187 301 293 365
35 21 73 30 73 18z m2084 -422 c97 -33 184 -128 205 -222 38 -171 -131 -403
-293 -403 -152 0 -298 170 -299 347 0 81 27 156 72 199 24 23 32 25 55 16 37
-14 91 -13 103 3 6 6 16 29 22 49 12 38 13 38 54 31 23 -3 60 -12 81 -20z
m-2124 -669 c41 -41 101 -91 133 -111 31 -20 56 -37 55 -39 -2 -1 -45 -9 -96
-18 -52 -9 -106 -23 -120 -32 l-27 -15 25 5 c164 36 231 31 323 -25 45 -28 49
-29 54 -11 4 18 10 17 101 -14 53 -18 160 -50 237 -70 131 -34 150 -36 295
-36 114 -1 182 5 255 19 l100 19 0 -185 0 -186 53 -140 c53 -137 54 -141 50
-230 -3 -73 -9 -102 -32 -152 -47 -103 -145 -182 -282 -227 -39 -13 -313 -56
-358 -56 -5 0 9 16 32 36 86 73 124 190 88 266 -27 57 -49 61 -265 53 -158 -6
-194 -10 -220 -26 -41 -25 -60 -57 -71 -121 -11 -71 2 -131 42 -187 l31 -44
-104 7 c-301 20 -458 70 -653 211 -86 61 -88 61 -165 17 -53 -31 -147 -35
-196 -10 -54 29 -113 88 -163 163 -129 192 -128 398 2 464 61 31 156 39 206
18 54 -24 76 -50 121 -148 24 -49 51 -95 61 -100 24 -13 88 16 88 40 0 10 3
21 7 25 4 4 7 98 7 209 1 241 9 271 73 283 21 4 48 10 60 15 l22 8 -29 63
c-16 35 -32 77 -36 95 -6 28 -2 34 35 58 39 26 54 55 30 55 -23 0 12 28 57 47
45 19 52 27 33 39 -8 4 1 14 22 25 19 10 36 18 39 19 3 0 39 -34 80 -76z m835
-1170 c22 -9 45 -57 45 -95 0 -67 -22 -112 -86 -175 -80 -80 -147 -107 -250
-102 -87 4 -142 36 -175 101 -39 76 -23 193 33 244 16 14 43 19 131 24 174 8
284 10 302 3z m-334 -395 c37 -7 71 -8 109 -1 30 6 57 8 59 6 6 -6 -69 -83
-92 -96 -18 -9 -60 14 -147 82 -24 19 -24 20 -4 20 11 0 45 -5 75 -11z m372
-144 c-3 -8 0 -15 7 -15 7 0 10 -6 7 -14 -8 -20 13 -36 45 -36 28 0 37 13 18
25 -5 3 -10 15 -10 25 0 10 -6 21 -12 23 -7 3 3 6 22 6 24 0 31 -2 21 -8 -24
-15 13 -81 44 -81 26 0 35 25 13 33 -10 4 -10 7 -1 17 10 11 14 9 21 -11 5
-13 19 -50 31 -82 12 -33 17 -57 10 -55 -6 2 -11 8 -11 13 0 6 -5 16 -11 24
-7 7 -12 21 -12 30 0 10 -10 17 -27 19 -32 4 -35 -9 -13 -52 8 -15 15 -34 15
-42 0 -15 42 -29 64 -21 8 3 17 -1 20 -9 3 -8 -1 -17 -9 -20 -8 -4 -12 -11 -8
-17 3 -5 -5 -29 -17 -53 l-24 -43 -65 6 c-80 7 -97 23 -136 131 -15 39 -31 75
-37 78 -5 3 -14 18 -19 32 l-11 27 -19 -24 c-16 -19 -19 -20 -19 -6 0 23 105
129 119 121 6 -4 8 -13 4 -21z m-183 -27 c0 -21 -11 -23 -28 -6 -8 8 -8 17 0
31 8 16 12 17 19 6 5 -8 9 -22 9 -31z m-258 18 c17 -12 17 -14 0 -30 -36 -32
-63 -16 -46 28 7 19 23 20 46 2z m233 -56 c26 -28 11 -31 -150 -28 -127 3
-138 4 -115 17 38 22 77 29 166 30 69 1 84 -2 99 -19z m115 -69 c0 -6 -4 -13
-10 -16 -5 -3 -10 1 -10 9 0 9 5 16 10 16 6 0 10 -4 10 -9z m-86 -28 c4 -9 3
-20 -1 -24 -5 -5 -76 -9 -158 -10 -144 -1 -150 0 -153 19 -4 25 14 28 184 30
105 2 123 0 128 -15z m144 -78 c0 -5 -6 4 -13 20 -8 17 -14 37 -14 45 0 8 7
-1 14 -20 7 -19 13 -39 13 -45z m-24 -25 l7 -25 -15 25 c-9 14 -15 32 -15 40
0 13 1 13 8 0 5 -8 12 -26 15 -40z m-114 -4 c0 -21 -6 -24 -52 -30 -29 -3 -99
-6 -155 -6 -85 0 -103 3 -103 15 0 8 0 18 0 23 0 8 100 18 223 20 85 2 87 2
87 -22z m-1760 -30 c193 -44 320 -107 432 -214 127 -121 208 -307 208 -479 l0
-55 -38 49 c-45 56 -150 149 -207 183 -22 13 -51 31 -65 39 -35 21 -16 3 62
-57 140 -109 248 -249 248 -319 0 -24 -7 -32 -37 -47 -54 -25 -135 -78 -129
-84 3 -2 40 12 82 32 75 35 104 43 104 28 0 -4 -27 -47 -60 -95 -54 -80 -68
-107 -56 -107 2 0 36 40 76 90 l71 90 39 -20 c22 -11 59 -20 85 -20 l45 0 0
-49 c0 -28 4 -52 9 -55 10 -6 21 40 21 86 0 28 2 29 30 23 32 -7 106 20 129
48 12 16 15 15 40 -2 49 -34 110 -61 141 -61 23 0 35 -7 50 -32 57 -94 -23
-239 -170 -305 -113 -52 -132 -53 -930 -60 -743 -6 -745 -6 -823 16 -197 54
-339 175 -382 326 -8 27 -21 103 -30 168 -18 142 -7 313 25 401 46 122 173
273 298 354 79 51 206 98 347 127 146 31 251 31 385 1z m1760 -76 c0 -19 -7
-20 -155 -20 -122 0 -155 3 -155 13 0 8 3 17 7 20 3 4 73 7 155 7 141 0 148
-1 148 -20z m290 -10 c10 -6 16 -32 18 -79 5 -80 -2 -111 -20 -93 -7 7 -25 12
-40 12 l-28 0 0 79 c0 54 4 81 13 84 20 8 41 7 57 -3z m-290 -80 c0 -18 -7
-20 -63 -20 -35 0 -105 -3 -155 -6 -89 -7 -92 -6 -92 14 0 20 6 21 108 25 59
1 128 4 155 5 41 2 47 -1 47 -18z m5 -105 c0 -19 -9 -20 -150 -26 -148 -7
-171 -3 -162 26 4 10 162 22 262 21 43 -1 50 -4 50 -21z m0 -95 c-3 -5 -13
-10 -21 -10 -8 0 -14 5 -14 10 0 6 9 10 21 10 11 0 17 -4 14 -10z m-230 -10
c-3 -5 -22 -10 -41 -10 -19 0 -34 5 -34 10 0 6 18 10 41 10 24 0 38 -4 34 -10z
m170 0 c3 -5 1 -10 -4 -10 -6 0 -11 5 -11 10 0 6 2 10 4 10 3 0 8 -4 11 -10z
m-125 -10 c0 -5 -4 -10 -10 -10 -5 0 -10 5 -10 10 0 6 5 10 10 10 6 0 10 -4
10 -10z m-693 -37 c-3 -10 -5 -4 -5 12 0 17 2 24 5 18 2 -7 2 -21 0 -30z m480
-35 c-3 -20 -4 -21 -11 -5 -5 9 -5 29 0 45 7 25 8 26 11 5 3 -13 3 -33 0 -45z
m485 13 c-2 -23 -8 -38 -13 -35 -10 6 -12 67 -3 77 14 13 20 -3 16 -42z m-718
-83 c18 -29 18 -31 1 -25 -14 6 -16 4 -10 -15 18 -59 17 -66 -4 -73 -15 -5
-32 2 -61 25 -26 20 -40 27 -40 18 0 -8 5 -19 12 -26 24 -24 -34 -13 -69 14
-22 16 -33 20 -33 12 0 -8 5 -19 12 -26 25 -25 -7 -11 -34 15 -23 22 -28 24
-28 9 0 -9 -4 -14 -10 -11 -5 3 -10 28 -10 56 l0 49 83 -6 c45 -3 96 -1 112 5
49 15 60 13 79 -21z m641 10 c3 -13 3 -57 1 -98 -2 -41 -5 -83 -5 -92 -1 -19
-31 -26 -31 -8 0 7 -6 7 -19 0 -11 -5 -69 -10 -130 -10 l-111 0 0 38 c0 27 3
33 10 22 7 -11 9 -4 7 25 -1 22 -6 43 -10 46 -5 3 -5 23 -1 43 l7 38 46 -7
c72 -11 163 -6 185 10 30 20 45 18 51 -7z m-406 -85 c0 -10 -4 -27 -9 -38 -7
-16 -9 -13 -9 18 -1 20 4 37 9 37 6 0 10 -8 9 -17z m491 -23 c0 -39 -13 -54
-23 -27 -7 18 3 67 14 67 5 0 9 -18 9 -40z m-580 -13 c104 -51 250 -212 250
-275 0 -39 -25 -47 -90 -27 -59 18 -59 18 -111 -5 -74 -31 -129 -25 -204 25
-58 39 -156 148 -195 218 l-22 38 112 -4 c123 -3 150 5 150 49 0 31 13 28 110
-19z m-470 -32 c14 -12 15 -24 7 -67 -14 -87 -12 -111 16 -155 32 -51 32 -49
6 -64 -30 -16 -100 5 -137 42 -34 34 -46 94 -36 183 6 48 10 57 33 65 40 14
93 13 111 -4z m85 -32 c11 -21 21 -41 23 -44 4 -9 -37 -19 -54 -12 -21 8 -16
93 5 93 4 0 16 -17 26 -37z m145 -195 c0 -12 -57 -48 -87 -54 -37 -7 -71 19
-107 86 -33 60 -29 84 12 75 16 -3 39 -1 53 4 21 8 29 4 76 -47 29 -31 52 -60
53 -64z m730 95 c0 -5 -5 -15 -10 -23 -8 -12 -10 -11 -10 8 0 12 5 22 10 22 6
0 10 -3 10 -7z m229 -235 l1 -126 -31 -11 c-41 -14 -131 -14 -163 0 -28 13
-34 30 -45 118 -7 62 -6 64 23 96 26 27 43 34 109 45 52 9 81 18 85 28 12 33
21 -25 21 -150z m-591 -12 c3 -103 -2 -116 -40 -116 -16 0 -18 11 -18 91 0 96
11 132 38 127 14 -3 17 -19 20 -102z m639 -68 c-3 -7 -5 -2 -5 12 0 14 2 19 5
13 2 -7 2 -19 0 -25z m-710 -30 c-3 -8 -6 -5 -6 6 -1 11 2 17 5 13 3 -3 4 -12
1 -19z"/>
<path d="M2410 2998 c-55 -12 -80 -33 -80 -67 0 -43 26 -71 66 -71 19 0 34 -1
34 -2 0 -2 -7 -25 -15 -52 -42 -137 2 -365 87 -450 38 -38 39 -38 103 -34 72
4 105 22 143 78 36 54 64 163 67 269 2 81 5 95 20 97 10 1 33 17 51 35 40 39
44 76 12 107 -33 30 -144 80 -207 92 -66 12 -220 11 -281 -2z m308 -423 c33
-10 52 -21 52 -31 0 -42 -26 -107 -57 -143 -63 -74 -153 -76 -211 -5 -29 36
-71 149 -59 161 14 13 105 32 163 32 33 1 84 -6 112 -14z"/>
<path d="M3545 2996 c-97 -31 -205 -102 -205 -136 0 -4 11 -24 25 -44 23 -34
24 -40 14 -93 -13 -66 -5 -179 17 -252 46 -155 196 -188 281 -62 35 52 46 106
47 226 1 100 -2 115 -25 163 -26 52 -26 54 -5 47 52 -17 70 -11 90 29 38 78
-19 136 -133 135 -36 0 -84 -6 -106 -13z m109 -427 c38 -10 38 -11 34 -53 -11
-94 -67 -156 -143 -156 -64 0 -135 91 -135 173 0 9 1 17 3 17 1 0 20 7 42 15
48 17 145 19 199 4z"/>
<path d="M1631 2703 c-50 -40 -76 -122 -55 -177 10 -26 27 -18 20 10 -11 42 5
93 39 130 29 30 38 34 84 34 48 0 55 -3 94 -43 54 -56 90 -124 116 -217 24
-84 27 -150 9 -168 -22 -22 -117 -12 -200 23 -11 4 -18 3 -18 -3 0 -6 24 -22
54 -36 74 -35 153 -36 184 -3 72 76 -46 399 -169 462 -47 25 -118 19 -158 -12z"/>
<path d="M3306 1701 c-16 -18 -16 -21 4 -55 11 -20 20 -43 20 -51 0 -21 17
-19 29 4 11 19 -6 71 -22 71 -5 0 -6 9 -2 19 8 27 -9 34 -29 12z"/>
<path d="M3395 1651 c-3 -6 0 -14 9 -17 8 -3 12 -12 9 -20 -3 -8 3 -21 13 -29
11 -8 15 -15 10 -15 -5 0 -3 -7 4 -15 13 -16 60 -21 60 -7 0 8 -21 57 -39 92
-10 18 -56 26 -66 11z"/>
<path d="M3354 1576 c-8 -21 15 -78 30 -73 15 5 20 47 6 47 -6 0 -10 7 -8 16
4 22 -20 30 -28 10z"/>
<path d="M3498 1503 c6 -2 18 -2 25 0 6 3 1 5 -13 5 -14 0 -19 -2 -12 -5z"/>
<path d="M4242 318 c-14 -14 -16 -62 -2 -53 5 3 7 12 4 19 -6 15 40 31 56 21
6 -4 10 -2 10 3 0 21 -50 28 -68 10z"/>
<path d="M4360 295 c0 -8 5 -15 10 -15 6 0 10 7 10 15 0 8 -4 15 -10 15 -5 0
-10 -7 -10 -15z"/>
<path d="M4620 273 c0 -27 3 -34 9 -24 8 13 12 13 27 0 16 -13 16 -12 3 11
-29 51 -39 54 -39 13z"/>
<path d="M4787 303 c-2 -5 0 -21 4 -38 7 -29 7 -29 8 8 1 35 -3 46 -12 30z"/>
<path d="M4447 283 c-10 -10 -8 -33 2 -33 6 0 9 9 8 20 -1 23 -1 22 -10 13z"/>
<path d="M4480 280 c0 -5 5 -10 11 -10 5 0 7 5 4 10 -3 6 -8 10 -11 10 -2 0
-4 -4 -4 -10z"/>
<path d="M4532 265 c0 -16 2 -22 5 -12 2 9 2 23 0 30 -3 6 -5 -1 -5 -18z"/>
<path d="M4570 271 c0 -11 5 -23 10 -26 6 -3 10 3 10 14 0 11 -4 23 -10 26 -5
3 -10 -3 -10 -14z"/>
<path d="M4702 270 c0 -14 2 -19 5 -12 2 6 2 18 0 25 -3 6 -5 1 -5 -13z"/>
<path d="M4910 271 c0 -11 4 -22 9 -25 4 -3 6 6 3 19 -5 30 -12 33 -12 6z"/>
<path d="M4958 265 c-3 -14 -1 -25 3 -25 5 0 9 11 9 25 0 14 -2 25 -4 25 -2 0
-6 -11 -8 -25z"/>
<path d="M4303 266 c-4 -8 -19 -16 -33 -19 -25 -4 -25 -4 2 -6 18 -1 31 6 38
19 12 22 6 28 -7 6z"/>
<path d="M4400 266 c0 -9 5 -16 10 -16 6 0 10 4 10 9 0 6 -4 13 -10 16 -5 3
-10 -1 -10 -9z"/>
<path d="M4866 255 c4 -8 10 -12 15 -9 11 6 2 24 -11 24 -5 0 -7 -7 -4 -15z"/>
<path d="M4231 186 c-7 -8 -11 -30 -8 -48 l4 -33 1 37 c2 31 6 39 26 44 30 7
44 -1 57 -30 8 -18 8 -17 6 9 -2 27 -6 30 -38 33 -22 2 -40 -2 -48 -12z"/>
<path d="M4406 174 c-10 -26 -7 -34 14 -34 11 0 20 -7 20 -16 0 -11 -6 -14
-21 -9 -15 5 -19 4 -15 -4 9 -15 39 -14 54 1 9 9 15 9 24 0 27 -27 73 5 53 38
-8 14 -52 13 -57 -1 -6 -17 -48 7 -48 26 0 20 -16 19 -24 -1z"/>
<path d="M4640 147 c0 -42 1 -44 30 -44 23 0 29 4 25 14 -3 8 -5 21 -5 29 0 8
-7 14 -15 14 -8 0 -15 7 -15 15 0 8 -4 15 -10 15 -5 0 -10 -19 -10 -43z"/>
<path d="M4796 175 c-8 -22 4 -75 18 -75 7 0 10 14 8 40 -4 43 -16 59 -26 35z"/>
<path d="M4252 148 c2 -15 10 -23 23 -23 13 0 21 8 23 23 3 18 -1 22 -23 22
-22 0 -26 -4 -23 -22z m30 -3 c0 -5 -5 -11 -11 -13 -6 -2 -11 4 -11 13 0 9 5
15 11 13 6 -2 11 -8 11 -13z"/>
<path d="M4360 130 c0 -16 5 -30 10 -30 6 0 10 14 10 30 0 17 -4 30 -10 30 -5
0 -10 -13 -10 -30z"/>
<path d="M4555 150 c-8 -13 4 -50 16 -50 5 0 9 11 9 25 0 14 5 25 10 25 6 0
10 -11 10 -25 0 -14 5 -25 10 -25 6 0 10 14 10 30 0 27 -3 30 -29 30 -17 0
-33 -5 -36 -10z"/>
<path d="M4714 145 c-10 -25 4 -45 30 -45 23 0 42 32 30 52 -9 14 -54 9 -60
-7z"/>
<path d="M4842 130 c1 -26 5 -30 31 -30 26 0 29 3 23 23 -3 12 -6 25 -6 30 0
4 -11 7 -24 7 -21 0 -25 -5 -24 -30z"/>
<path d="M4912 134 c2 -25 8 -29 36 -32 30 -3 32 -1 32 28 0 37 -21 37 -31 -1
l-6 -24 -4 24 c-6 36 -31 40 -27 5z"/>
</g>
</svg>
