<?xml version="1.0" standalone="no"?>
<!DOCTYPE svg PUBLIC "-//W3C//DTD SVG 20010904//EN"
 "http://www.w3.org/TR/2001/REC-SVG-20010904/DTD/svg10.dtd">
<svg version="1.0" xmlns="http://www.w3.org/2000/svg"
 width="1024.000000pt" height="1024.000000pt" viewBox="0 0 1024.000000 1024.000000"
 preserveAspectRatio="xMidYMid meet">

<g transform="translate(0.000000,1024.000000) scale(0.100000,-0.100000)"
fill="#000000" stroke="none">
<path d="M3563 9299 c-778 -29 -1303 -193 -1729 -540 -492 -401 -737 -934
-806 -1754 -19 -229 -19 -3280 0 -3500 61 -712 263 -1213 648 -1614 376 -392
866 -601 1569 -666 354 -34 2766 -43 3400 -14 525 24 892 107 1238 280 602
301 968 767 1127 1434 102 427 115 733 106 2450 -7 1298 -14 1648 -41 1840
-58 435 -187 796 -391 1103 -272 408 -614 668 -1082 822 -238 78 -487 123
-837 151 -171 14 -2871 21 -3202 8z m2727 -719 c558 -26 907 -71 1109 -142
266 -93 475 -241 620 -438 155 -209 243 -399 284 -615 9 -44 25 -127 36 -185
24 -127 36 -271 52 -615 14 -318 7 -2503 -9 -2760 -13 -201 -57 -598 -78 -705
-50 -249 -176 -509 -328 -677 -137 -150 -391 -312 -606 -385 -94 -31 -392 -91
-540 -107 -251 -27 -612 -33 -1895 -29 l-1310 4 -240 27 c-461 51 -579 75
-765 157 -265 117 -420 248 -583 495 -112 170 -150 264 -206 510 -65 282 -69
310 -84 555 -17 295 -17 2924 1 3100 55 539 73 653 128 811 90 259 228 463
408 603 227 178 463 285 706 321 25 4 88 15 140 26 93 18 243 32 545 48 222
12 2363 13 2615 1z"/>
<path d="M7151 7920 c-84 -13 -189 -70 -263 -145 -206 -206 -207 -475 -3 -681
132 -132 289 -181 450 -139 88 23 152 62 230 140 159 160 194 351 100 541 -60
123 -200 242 -320 272 -64 16 -136 21 -194 12z"/>
<path d="M4826 7329 c-647 -61 -1212 -419 -1568 -991 -283 -455 -372 -1054
-238 -1605 136 -562 522 -1048 1060 -1336 472 -252 1114 -300 1647 -122 499
166 935 550 1186 1042 208 409 268 895 171 1383 -75 379 -256 715 -549 1019
-332 345 -717 541 -1185 601 -120 15 -406 20 -524 9z m479 -734 c401 -71 775
-355 964 -733 41 -81 95 -243 117 -352 25 -120 26 -392 1 -510 -60 -284 -196
-524 -409 -725 -188 -177 -392 -285 -641 -340 -98 -22 -381 -31 -488 -16 -204
29 -387 98 -553 208 -125 83 -330 283 -406 397 -151 226 -217 475 -207 776 12
329 105 580 308 824 228 276 540 446 892 486 99 12 314 4 422 -15z"/>
</g>
</svg>
